<?xml version="1.0" encoding="UTF-8" standalone="no"?>
<svg
   version="1.1"
   width="current"
   height="current"
   viewBox="50 0 450 100"
   id="svg80"
>
  <defs
     id="defs84" />
  <g
     data-paper-data="{&quot;description&quot;:&quot;Logo for HansungMating\n======================\n\nThis logo was generated by MarkMaker at http://emblemmatic.org/markmaker/ and may be composed of elements designed by others.\n\nThe font is Palanquin Dark Medium designed by Pria Ravichandran and released under the OFL license via Google Fonts: https://www.google.com/fonts/specimen/Palanquin%20Dark. The font includes this copyright statement: Copyright 2014 Pria Ravichandran (pria.ravichandran@gmail.com)\n\nMarkMaker uses semantic data from the Princeton University WordNet database http://wordnet.princeton.edu and font descriptions from Google Fonts https://www.google.com/fonts.&quot;}"
     fill="current"
     fill-rule="nonzero"
     stroke="none"
     stroke-width="1"
     stroke-linecap="butt"
     stroke-linejoin="miter"
     stroke-miterlimit="10"
     stroke-dasharray="none"
     stroke-dashoffset="0"
     font-family="none"
     font-weight="none"
     font-size="none"
     text-anchor="none"
     style="mix-blend-mode:normal"
     id="g78"
     transform="translate(30.332799,-199.40235)">
    <g
       data-paper-data="{&quot;elementType&quot;:&quot;logo&quot;}"
       id="g76">
      <g
         data-paper-data="{&quot;elementType&quot;:&quot;text&quot;}"
         id="g74">
        <g
           data-paper-data="{&quot;baseline&quot;:71.60000000000001,&quot;elementType&quot;:&quot;row&quot;}"
           id="g72">
          <g
             data-paper-data="{&quot;baselineProportion&quot;:0.7732181425485961,&quot;fontSize&quot;:100,&quot;baseline&quot;:71.60000000000001,&quot;elementType&quot;:&quot;word&quot;}"
             id="g70">
            <path
               d="m 56.91288,229.54545 v 13.63636 h 12.4053 v -13.39962 h 6.91288 v 32.19697 h -6.91288 v -13.25758 h -12.4053 v 13.25758 H 50 v -32.19697 z"
               data-paper-data="{&quot;elementType&quot;:&quot;letter&quot;,&quot;baseline&quot;:68.5,&quot;baselineProportion&quot;:1,&quot;fontSize&quot;:100}"
               id="path44" />
            <path
               d="m 97.39583,238.35227 c 2.87247,0 5.23201,0.82071 7.0786,2.46212 1.84659,1.64141 2.76989,3.75631 2.76989,6.3447 v 14.82008 h -3.40909 l -1.51515,-1.89394 c -0.78914,0.69444 -1.75979,1.27841 -2.91193,1.75189 -1.15215,0.47348 -2.32797,0.71023 -3.52746,0.71023 -2.84091,0 -4.94792,-0.70234 -6.32102,-2.10701 -1.37311,-1.40467 -2.05966,-3.24337 -2.05966,-5.5161 0,-2.39899 0.81282,-4.21402 2.43845,-5.44508 1.62563,-1.23106 3.74842,-1.84659 6.36837,-1.84659 h 3.92992 c -0.0631,-0.97854 -0.40246,-1.75189 -1.01799,-2.32008 -0.61553,-0.56818 -1.42835,-0.85227 -2.43845,-0.85227 -0.97854,0 -2.06755,0.14205 -3.26705,0.42614 -1.19949,0.28409 -2.24116,0.63131 -3.125,1.04167 l -1.84659,-5.49242 c 0.97854,-0.56818 2.38321,-1.05745 4.21402,-1.4678 1.83081,-0.41035 3.37753,-0.61553 4.64015,-0.61553 z m -1.51515,18.60796 c 0.72601,0 1.4678,-0.16572 2.22538,-0.49716 0.75758,-0.33144 1.48359,-0.81282 2.17803,-1.44413 v -2.88826 h -3.97727 c -0.9154,0 -1.62563,0.26831 -2.13068,0.80492 -0.50505,0.53662 -0.75758,1.16793 -0.75758,1.89394 0,0.56818 0.23674,1.06534 0.71023,1.49148 0.47348,0.42614 1.05745,0.6392 1.75189,0.6392"
               data-paper-data="{&quot;elementType&quot;:&quot;letter&quot;,&quot;baseline&quot;:49.900000000000006,&quot;baselineProportion&quot;:0.9765166340508806,&quot;fontSize&quot;:100}"
               id="path46" />
            <path
               d="m 132.10227,238.16288 c 3.15657,0 5.40562,0.90751 6.74716,2.72254 1.34154,1.81503 2.01231,4.06408 2.01231,6.74716 v 14.34659 h -6.96023 v -14.0625 c 0,-1.26263 -0.32355,-2.23327 -0.97064,-2.91193 -0.6471,-0.67866 -1.53883,-1.01799 -2.67519,-1.01799 -0.75758,0 -1.60196,0.19729 -2.53314,0.59186 -0.93119,0.39457 -1.77557,0.84438 -2.53314,1.34943 v 16.05114 h -6.96023 v -22.96402 h 3.59848 l 1.84659,2.32008 c 1.0101,-0.88384 2.30429,-1.63352 3.88258,-2.24905 1.57828,-0.61553 3.09343,-0.9233 4.54545,-0.9233 z"
               data-paper-data="{&quot;elementType&quot;:&quot;letter&quot;,&quot;baseline&quot;:50.300000000000004,&quot;baselineProportion&quot;:1,&quot;fontSize&quot;:100}"
               id="path48" />
            <path
               d="m 160.79545,247.44318 c 1.92551,0.69444 3.72475,1.64931 5.39773,2.86458 1.67298,1.21528 2.50947,2.83302 2.50947,4.85322 0,2.30429 -0.80492,4.11143 -2.41477,5.4214 -1.60985,1.30997 -3.99306,1.96496 -7.14962,1.96496 -0.97854,0 -2.35953,-0.22096 -4.14299,-0.66288 -1.78346,-0.44192 -3.25915,-1.1048 -4.42708,-1.98864 l 2.03598,-4.92424 c 1.04167,0.50505 2.12279,0.9154 3.24337,1.23106 1.12058,0.31566 2.09122,0.47348 2.91193,0.47348 0.94697,0 1.6572,-0.13415 2.13068,-0.40246 0.47348,-0.26831 0.71023,-0.59186 0.71023,-0.97064 0,-0.50505 -0.24463,-0.95486 -0.7339,-1.34943 -0.48927,-0.39457 -1.27052,-0.76547 -2.34375,-1.11269 -1.86237,-0.59975 -3.63005,-1.4678 -5.30303,-2.60417 -1.67298,-1.13636 -2.50947,-2.69886 -2.50947,-4.6875 0,-2.27273 0.8286,-4.0404 2.4858,-5.30303 1.6572,-1.26263 3.9536,-1.89394 6.8892,-1.89394 0.94697,0 2.23327,0.20518 3.8589,0.61553 1.62563,0.41035 3.03819,1.05745 4.23769,1.94129 l -2.03598,4.92424 c -1.04167,-0.50505 -2.05177,-0.90751 -3.0303,-1.20739 -0.97854,-0.29987 -1.95707,-0.44981 -2.93561,-0.44981 -0.75758,0 -1.32576,0.13415 -1.70455,0.40246 -0.37879,0.26831 -0.56818,0.60764 -0.56818,1.01799 0,0.31566 0.21307,0.60764 0.6392,0.87595 0.42614,0.26831 1.17582,0.59186 2.24905,0.97064 z"
               data-paper-data="{&quot;elementType&quot;:&quot;letter&quot;,&quot;baseline&quot;:49.900000000000006,&quot;baselineProportion&quot;:0.9765166340508806,&quot;fontSize&quot;:100}"
               id="path50" />
            <path
               d="m 186.88447,262.87879 c -3.15657,0 -5.38984,-0.9154 -6.69981,-2.74621 -1.30997,-1.83081 -1.96496,-4.07197 -1.96496,-6.72348 v -14.39394 h 7.00758 v 14.10985 c 0,1.26263 0.30777,2.23327 0.9233,2.91193 0.61553,0.67866 1.49148,1.01799 2.62784,1.01799 0.72601,0 1.52304,-0.1815 2.3911,-0.54451 0.86806,-0.36301 1.66509,-0.78125 2.3911,-1.25473 v -16.24053 h 6.96023 v 22.96402 h -3.59848 l -1.75189,-2.17803 c -1.0101,0.85227 -2.28062,1.57828 -3.81155,2.17803 -1.53093,0.59975 -3.02241,0.89962 -4.47443,0.89962 z"
               data-paper-data="{&quot;elementType&quot;:&quot;letter&quot;,&quot;baseline&quot;:48.5,&quot;baselineProportion&quot;:0.9623015873015872,&quot;fontSize&quot;:100}"
               id="path52" />
            <path
               d="m 225.71023,238.16288 c 3.15657,0 5.40562,0.90751 6.74716,2.72254 1.34154,1.81503 2.01231,4.06408 2.01231,6.74716 v 14.34659 h -6.96023 v -14.0625 c 0,-1.26263 -0.32355,-2.23327 -0.97064,-2.91193 -0.6471,-0.67866 -1.53883,-1.01799 -2.67519,-1.01799 -0.75758,0 -1.60196,0.19729 -2.53314,0.59186 -0.93119,0.39457 -1.77557,0.84438 -2.53314,1.34943 v 16.05114 h -6.96023 v -22.96402 h 3.59848 l 1.84659,2.32008 c 1.0101,-0.88384 2.30429,-1.63352 3.88258,-2.24905 1.57828,-0.61553 3.09343,-0.9233 4.54545,-0.9233 z"
               data-paper-data="{&quot;elementType&quot;:&quot;letter&quot;,&quot;baseline&quot;:50.300000000000004,&quot;baselineProportion&quot;:1,&quot;fontSize&quot;:100}"
               id="path54" />
            <path
               d="m 267.80303,239.0625 v 22.91667 c 0,2.96717 -0.98643,5.36616 -2.95928,7.19697 -1.97285,1.83081 -4.99527,2.74621 -9.06723,2.74621 -0.97854,0 -2.41477,-0.22096 -4.30871,-0.66288 -1.89394,-0.44192 -3.48801,-1.1048 -4.7822,-1.98864 l 2.08333,-4.87689 c 1.45202,0.69444 2.68308,1.1916 3.69318,1.49148 1.0101,0.29987 2.06755,0.44981 3.17235,0.44981 1.70455,0 2.99874,-0.38668 3.88258,-1.16004 0.88384,-0.77336 1.32576,-1.82292 1.32576,-3.14867 v -1.04167 c -0.88384,0.47348 -1.83081,0.84438 -2.84091,1.11269 -1.0101,0.26831 -2.00442,0.40246 -2.98295,0.40246 -3.47222,0 -6.10795,-1.15215 -7.9072,-3.45644 -1.79924,-2.30429 -2.69886,-5.17677 -2.69886,-8.61742 0,-3.47222 0.93119,-6.38415 2.79356,-8.7358 1.86237,-2.35164 4.57702,-3.52746 8.14394,-3.52746 1.16793,0 2.44634,0.26042 3.83523,0.78125 1.38889,0.52083 2.58838,1.1916 3.59848,2.01231 l 1.4678,-1.89394 z m -16.24053,11.31629 c 0,1.67298 0.37879,3.14867 1.13636,4.42708 0.75758,1.27841 2.13068,1.91761 4.11932,1.91761 0.59975,0 1.27052,-0.13415 2.01231,-0.40246 0.74179,-0.26831 1.41256,-0.57607 2.01231,-0.9233 v -9.80114 c -0.63131,-0.44192 -1.32576,-0.82071 -2.08333,-1.13636 -0.75758,-0.31566 -1.4678,-0.47348 -2.13068,-0.47348 -1.89394,0 -3.21181,0.70234 -3.9536,2.10701 -0.74179,1.40467 -1.11269,2.83302 -1.11269,4.28504"
               data-paper-data="{&quot;elementType&quot;:&quot;letter&quot;,&quot;baseline&quot;:50.300000000000004,&quot;baselineProportion&quot;:0.7054698457223001,&quot;fontSize&quot;:100}"
               id="path56" />
            <path
               d="m 293.98674,252.41477 -6.91288,-8.71212 v 18.27652 h -6.91288 V 229.7822 h 4.54545 l 10.51136,14.01515 c 1.60985,-2.30429 3.20391,-4.63226 4.7822,-6.9839 1.57828,-2.35164 3.17235,-4.69539 4.7822,-7.03125 h 4.40341 v 32.19697 h -7.00758 v -17.56629 c -0.88384,1.26263 -1.79135,2.53314 -2.72254,3.81155 -0.93119,1.27841 -1.85448,2.54893 -2.76989,3.81155 -0.44192,0.0316 -0.89173,0.0947 -1.34943,0.18939 -0.4577,0.0947 -0.90751,0.15783 -1.34943,0.18939 z"
               data-paper-data="{&quot;elementType&quot;:&quot;letter&quot;,&quot;baseline&quot;:68,&quot;baselineProportion&quot;:1,&quot;fontSize&quot;:100}"
               id="path58" />
            <path
               d="m 330.30303,238.35227 c 2.87247,0 5.23201,0.82071 7.0786,2.46212 1.84659,1.64141 2.76989,3.75631 2.76989,6.3447 v 14.82008 h -3.40909 l -1.51515,-1.89394 c -0.78914,0.69444 -1.75979,1.27841 -2.91193,1.75189 -1.15215,0.47348 -2.32797,0.71023 -3.52746,0.71023 -2.84091,0 -4.94792,-0.70234 -6.32102,-2.10701 -1.37311,-1.40467 -2.05966,-3.24337 -2.05966,-5.5161 0,-2.39899 0.81282,-4.21402 2.43845,-5.44508 1.62563,-1.23106 3.74842,-1.84659 6.36837,-1.84659 h 3.92992 c -0.0631,-0.97854 -0.40246,-1.75189 -1.01799,-2.32008 -0.61553,-0.56818 -1.42835,-0.85227 -2.43845,-0.85227 -0.97854,0 -2.06755,0.14205 -3.26705,0.42614 -1.19949,0.28409 -2.24116,0.63131 -3.125,1.04167 l -1.84659,-5.49242 c 0.97854,-0.56818 2.38321,-1.05745 4.21402,-1.4678 1.83081,-0.41035 3.37753,-0.61553 4.64015,-0.61553 z m -1.51515,18.60796 c 0.72601,0 1.4678,-0.16572 2.22538,-0.49716 0.75758,-0.33144 1.48359,-0.81282 2.17803,-1.44413 v -2.88826 h -3.97727 c -0.9154,0 -1.62563,0.26831 -2.13068,0.80492 -0.50505,0.53662 -0.75758,1.16793 -0.75758,1.89394 0,0.56818 0.23674,1.06534 0.71023,1.49148 0.47348,0.42614 1.05745,0.6392 1.75189,0.6392"
               data-paper-data="{&quot;elementType&quot;:&quot;letter&quot;,&quot;baseline&quot;:49.900000000000006,&quot;baselineProportion&quot;:0.9765166340508806,&quot;fontSize&quot;:100}"
               id="path60" />
            <path
               d="m 361.64773,262.78409 c -2.84091,0 -5.18466,-0.72601 -7.03125,-2.17803 -1.84659,-1.45202 -2.76989,-3.5827 -2.76989,-6.39205 v -9.4697 h -3.26705 v -5.39773 h 3.26705 v -5.68182 l 6.91288,-1.13636 v 6.81818 h 4.64015 l 1.51515,5.39773 h -6.1553 v 8.42803 c 0,1.1048 0.28409,2.01231 0.85227,2.72254 0.56818,0.71023 1.38889,1.06534 2.46212,1.06534 0.41035,0 0.85227,-0.0631 1.32576,-0.18939 0.47348,-0.12626 0.94697,-0.29987 1.42045,-0.52083 l 2.03598,4.92424 c -0.53662,0.44192 -1.32576,0.82071 -2.36742,1.13636 -1.04167,0.31566 -1.98864,0.47348 -2.84091,0.47348 z"
               data-paper-data="{&quot;elementType&quot;:&quot;letter&quot;,&quot;baseline&quot;:62.2,&quot;baselineProportion&quot;:0.97339593114241,&quot;fontSize&quot;:100}"
               id="path62" />
            <path
               d="m 382.67045,239.01515 v 22.96402 h -6.96023 v -22.96402 z m 0.42614,-7.05492 c 0,1.07323 -0.38668,1.98074 -1.16004,2.72254 -0.77336,0.74179 -1.69665,1.11269 -2.76989,1.11269 -1.07323,0 -1.97285,-0.3709 -2.69886,-1.11269 -0.72601,-0.74179 -1.08902,-1.64931 -1.08902,-2.72254 0,-1.07323 0.36301,-1.98864 1.08902,-2.74621 0.72601,-0.75758 1.62563,-1.13636 2.69886,-1.13636 1.07323,0 1.99653,0.37879 2.76989,1.13636 0.77336,0.75758 1.16004,1.67298 1.16004,2.74621"
               data-paper-data="{&quot;elementType&quot;:&quot;letter&quot;,&quot;baseline&quot;:71.60000000000001,&quot;baselineProportion&quot;:1,&quot;fontSize&quot;:100}"
               id="path64" />
            <path
               d="m 407.9072,238.16288 c 3.15657,0 5.40562,0.90751 6.74716,2.72254 1.34154,1.81503 2.01231,4.06408 2.01231,6.74716 v 14.34659 h -6.96023 v -14.0625 c 0,-1.26263 -0.32355,-2.23327 -0.97064,-2.91193 -0.6471,-0.67866 -1.53883,-1.01799 -2.67519,-1.01799 -0.75758,0 -1.60196,0.19729 -2.53314,0.59186 -0.93119,0.39457 -1.77557,0.84438 -2.53314,1.34943 v 16.05114 h -6.96023 v -22.96402 h 3.59848 l 1.84659,2.32008 c 1.0101,-0.88384 2.30429,-1.63352 3.88258,-2.24905 1.57828,-0.61553 3.09343,-0.9233 4.54545,-0.9233 z"
               data-paper-data="{&quot;elementType&quot;:&quot;letter&quot;,&quot;baseline&quot;:50.300000000000004,&quot;baselineProportion&quot;:1,&quot;fontSize&quot;:100}"
               id="path66" />
            <path
               d="m 450,239.0625 v 22.91667 c 0,2.96717 -0.98643,5.36616 -2.95928,7.19697 -1.97285,1.83081 -4.99527,2.74621 -9.06723,2.74621 -0.97854,0 -2.41477,-0.22096 -4.30871,-0.66288 -1.89394,-0.44192 -3.48801,-1.1048 -4.7822,-1.98864 l 2.08333,-4.87689 c 1.45202,0.69444 2.68308,1.1916 3.69318,1.49148 1.0101,0.29987 2.06755,0.44981 3.17235,0.44981 1.70455,0 2.99874,-0.38668 3.88258,-1.16004 0.88384,-0.77336 1.32576,-1.82292 1.32576,-3.14867 v -1.04167 c -0.88384,0.47348 -1.83081,0.84438 -2.84091,1.11269 -1.0101,0.26831 -2.00442,0.40246 -2.98295,0.40246 -3.47222,0 -6.10795,-1.15215 -7.9072,-3.45644 -1.79924,-2.30429 -2.69886,-5.17677 -2.69886,-8.61742 0,-3.47222 0.93119,-6.38415 2.79356,-8.7358 1.86237,-2.35164 4.57702,-3.52746 8.14394,-3.52746 1.16793,0 2.44634,0.26042 3.83523,0.78125 1.38889,0.52083 2.58838,1.1916 3.59848,2.01231 l 1.4678,-1.89394 z m -16.24053,11.31629 c 0,1.67298 0.37879,3.14867 1.13636,4.42708 0.75758,1.27841 2.13068,1.91761 4.11932,1.91761 0.59975,0 1.27052,-0.13415 2.01231,-0.40246 0.74179,-0.26831 1.41256,-0.57607 2.01231,-0.9233 v -9.80114 c -0.63131,-0.44192 -1.32576,-0.82071 -2.08333,-1.13636 -0.75758,-0.31566 -1.4678,-0.47348 -2.13068,-0.47348 -1.89394,0 -3.21181,0.70234 -3.9536,2.10701 -0.74179,1.40467 -1.11269,2.83302 -1.11269,4.28504"
               data-paper-data="{&quot;elementType&quot;:&quot;letter&quot;,&quot;baseline&quot;:50.300000000000004,&quot;baselineProportion&quot;:0.7054698457223001,&quot;fontSize&quot;:100}"
               id="path68" />
          </g>
        </g>
      </g>
    </g>
  </g>
</svg>
